<svg width="73" height="72" viewBox="0 0 73 72" fill="none" xmlns="http://www.w3.org/2000/svg">
<path d="M32.5 2.3094C34.9752 0.880339 38.0248 0.880339 40.5 2.3094L63.6769 15.6906C66.1521 17.1197 67.6769 19.7607 67.6769 22.6188V49.3812C67.6769 52.2393 66.1521 54.8803 63.6769 56.3094L40.5 69.6906C38.0248 71.1197 34.9752 71.1197 32.5 69.6906L9.32308 56.3094C6.84788 54.8803 5.32309 52.2393 5.32309 49.3812V22.6188C5.32309 19.7607 6.84788 17.1197 9.32309 15.6906L32.5 2.3094Z" fill="#111827"/>
<path d="M43.6676 45.1145L26.8131 52.2164C25.0622 52.9527 23.5403 50.7764 24.8331 49.3855L37.6131 35.5091L44.2403 42.2509C45.124 43.1345 44.8295 44.64 43.6676 45.1145Z" fill="white"/>
<path d="M48.2331 22.5327L37.6131 35.5091L30.9859 28.8C30.1022 27.9 30.3967 26.3946 31.5586 25.92L46.1877 19.7837C47.8895 19.0637 49.4113 21.1091 48.2331 22.5327Z" fill="white"/>
</svg>
